<svg xmlns="http://www.w3.org/2000/svg" xmlns:xlink="http://www.w3.org/1999/xlink" width="34" height="34" viewBox="0 0 34 34">
  <defs>
    <linearGradient id="linear-gradient" x1="0.5" x2="0.5" y2="1" gradientUnits="objectBoundingBox">
      <stop offset="0" stop-color="#229ffb"/>
      <stop offset="1" stop-color="#028fee"/>
    </linearGradient>
  </defs>
  <g id="play-circle-fill" transform="translate(0 0)" stroke-miterlimit="10" fill="url(#linear-gradient)">
    <path d="M 17.00010108947754 33.50020217895508 C 14.7828311920166 33.50020217895508 12.627760887146 33.06228256225586 10.59476089477539 32.19860076904297 C 8.631510734558105 31.36454200744629 6.866011142730713 30.17159080505371 5.347311019897461 28.65289115905762 C 3.828611135482788 27.13419151306152 2.635661125183105 25.36869049072266 1.801601052284241 23.40543174743652 C 0.9379211068153381 21.37244033813477 0.500001072883606 19.21737098693848 0.500001072883606 17.00010108947754 C 0.500001072883606 14.7828311920166 0.9379211068153381 12.627760887146 1.801601052284241 10.59476089477539 C 2.635661125183105 8.631510734558105 3.828611135482788 6.866011142730713 5.347311019897461 5.347311019897461 C 6.866011142730713 3.828611135482788 8.631510734558105 2.635661125183105 10.59477138519287 1.801601052284241 C 12.627760887146 0.9379211068153381 14.7828311920166 0.500001072883606 17.00010108947754 0.500001072883606 C 19.21737098693848 0.500001072883606 21.37244033813477 0.9379211068153381 23.40544128417969 1.801601052284241 C 25.36869049072266 2.635661125183105 27.13419151306152 3.828611135482788 28.65289115905762 5.347311019897461 C 30.17159080505371 6.866011142730713 31.36454200744629 8.631510734558105 32.19860076904297 10.59477138519287 C 33.06228256225586 12.627760887146 33.50020217895508 14.7828311920166 33.50020217895508 17.00010108947754 C 33.50020217895508 19.21737098693848 33.06228256225586 21.37244033813477 32.19860076904297 23.40544128417969 C 31.36454200744629 25.36869049072266 30.17159080505371 27.13419151306152 28.65289115905762 28.65289115905762 C 27.13419151306152 30.17159080505371 25.36869049072266 31.36454200744629 23.40543174743652 32.19860076904297 C 21.37244033813477 33.06228256225586 19.21737098693848 33.50020217895508 17.00010108947754 33.50020217895508 Z M 13.50040149688721 7.959671020507812 L 13.50040149688721 9.000000953674316 L 13.50040149688721 24.00030136108398 L 13.50040149688721 24.96065139770508 L 14.28714084625244 24.40991020202637 L 24.28704071044922 17.40971183776855 L 24.83404159545898 17.02679061889648 L 24.31265068054199 16.60967063903809 L 14.31275081634521 8.60957145690918 L 13.50040149688721 7.959671020507812 Z" stroke="none"/>
    <path d="M 17.00010108947754 33.00020217895508 C 19.14982032775879 33.00020217895508 21.23911094665527 32.5756721496582 23.20993041992188 31.73840141296387 C 25.11387062072754 30.92954063415527 26.82620048522949 29.77247047424316 28.29933166503906 28.29933166503906 C 29.77247047424316 26.82620048522949 30.92954063415527 25.11387062072754 31.73840141296387 23.20993041992188 C 32.5756721496582 21.23911094665527 33.00020217895508 19.14982032775879 33.00020217895508 17.00010108947754 C 33.00020217895508 14.85038089752197 32.5756721496582 12.7610912322998 31.73840141296387 10.79027080535889 C 30.92954063415527 8.886331558227539 29.77247047424316 7.174001216888428 28.29933166503906 5.700870990753174 C 26.82620048522949 4.227731227874756 25.11387062072754 3.070661067962646 23.20993041992188 2.26180100440979 C 21.23911094665527 1.424531102180481 19.14982032775879 1.000001072883606 17.00010108947754 1.000001072883606 C 14.85038089752197 1.000001072883606 12.7610912322998 1.424531102180481 10.79027080535889 2.26180100440979 C 8.886331558227539 3.070661067962646 7.174001216888428 4.227731227874756 5.700870990753174 5.700870990753174 C 4.227731227874756 7.174001216888428 3.070661067962646 8.886331558227539 2.26180100440979 10.79027080535889 C 1.424531102180481 12.7610912322998 1.000001072883606 14.85038089752197 1.000001072883606 17.00010108947754 C 1.000001072883606 19.14982032775879 1.424531102180481 21.23911094665527 2.26180100440979 23.20993041992188 C 3.070661067962646 25.11387062072754 4.227731227874756 26.82620048522949 5.700870990753174 28.29933166503906 C 7.174001216888428 29.77247047424316 8.886331558227539 30.92954063415527 10.79027080535889 31.73840141296387 C 12.7610912322998 32.5756721496582 14.85038089752197 33.00020217895508 17.00010108947754 33.00020217895508 M 13.00040149688721 6.919351100921631 L 14.62510108947754 8.219141006469727 L 24.62500190734863 16.21924018859863 L 25.66779136657715 17.05348014831543 L 24.57378196716309 17.81932067871094 L 14.57388114929199 24.81952095031738 L 13.00040149688721 25.92100143432617 L 13.00040149688721 24.00030136108398 L 13.00040149688721 9.000000953674316 L 13.00040149688721 6.919351100921631 M 17.00010108947754 34.00020217895508 C 14.71526145935059 34.00020217895508 12.49442100524902 33.54888153076172 10.39926147460938 32.65879058837891 C 8.376690864562988 31.79953193664551 6.558021068572998 30.57070159912109 4.99376106262207 29.00644111633301 C 3.429501056671143 27.44218063354492 2.200671195983887 25.62351036071777 1.341411113739014 23.6009407043457 C 0.4513210952281952 21.50578117370605 1.089477564164554e-06 19.28494071960449 1.089477564164554e-06 17.00010108947754 C 1.089477564164554e-06 14.71526145935059 0.4513210952281952 12.49442100524902 1.341411113739014 10.39926147460938 C 2.200671195983887 8.376690864562988 3.429501056671143 6.558021068572998 4.99376106262207 4.99376106262207 C 6.558021068572998 3.429501056671143 8.376690864562988 2.200671195983887 10.39926147460938 1.341411113739014 C 12.49442100524902 0.4513210952281952 14.71526145935059 1.089477564164554e-06 17.00010108947754 1.089477564164554e-06 C 19.28494071960449 1.089477564164554e-06 21.50578117370605 0.4513210952281952 23.6009407043457 1.341411113739014 C 25.62351036071777 2.200671195983887 27.44218063354492 3.429501056671143 29.00644111633301 4.99376106262207 C 30.57070159912109 6.558021068572998 31.79953193664551 8.376690864562988 32.65879058837891 10.39926147460938 C 33.54888153076172 12.49442100524902 34.00020217895508 14.71526145935059 34.00020217895508 17.00010108947754 C 34.00020217895508 19.28494071960449 33.54888153076172 21.50578117370605 32.65879058837891 23.6009407043457 C 31.79953193664551 25.62351036071777 30.57070159912109 27.44218063354492 29.00644111633301 29.00644111633301 C 27.44218063354492 30.57070159912109 25.62351036071777 31.79953193664551 23.6009407043457 32.65879058837891 C 21.50578117370605 33.54888153076172 19.28494071960449 34.00020217895508 17.00010108947754 34.00020217895508 Z M 14.00040149688721 9.000000953674316 L 14.00040149688721 24.00030136108398 L 24.00030136108398 17.00010108947754 L 14.00040149688721 9.000000953674316 Z" stroke="none" fill="#028be6"/>
  </g>
</svg>
